{
	"asset":{
		"generator":"Khronos glTF Blender I/O v4.2.60",
		"version":"2.0"
	},
	"extensionsUsed":[
		"KHR_materials_transmission",
		"KHR_materials_specular",
		"KHR_materials_ior"
	],
	"scene":0,
	"scenes":[
		{
			"name":"Scene",
			"nodes":[
				0
			]
		}
	],
	"nodes":[
		{
			"mesh":0,
			"name":"capilla",
			"scale":[
				0.3582536280155182,
				1.441407561302185,
				0.42359301447868347
			]
		}
	],
	"materials":[
		{
			"doubleSided":true,
			"name":"Material.015",
			"normalTexture":{
				"index":0
			},
			"pbrMetallicRoughness":{
				"baseColorTexture":{
					"index":1
				},
				"metallicFactor":0,
				"metallicRoughnessTexture":{
					"index":2
				}
			}
		},
		{
			"doubleSided":true,
			"extensions":{
				"KHR_materials_specular":{
					"specularFactor":0
				},
				"KHR_materials_ior":{
					"ior":0.8999999761581421
				}
			},
			"name":"Material.007",
			"normalTexture":{
				"index":3
			},
			"pbrMetallicRoughness":{
				"baseColorTexture":{
					"index":4
				},
				"metallicFactor":0,
				"metallicRoughnessTexture":{
					"index":5
				}
			}
		},
		{
			"doubleSided":true,
			"extensions":{
				"KHR_materials_specular":{
					"specularFactor":0
				}
			},
			"name":"Material.006",
			"normalTexture":{
				"index":6
			},
			"pbrMetallicRoughness":{
				"baseColorTexture":{
					"index":7
				},
				"metallicFactor":0,
				"metallicRoughnessTexture":{
					"index":8
				}
			}
		},
		{
			"name":"Material.008",
			"pbrMetallicRoughness":{
				"baseColorTexture":{
					"index":9
				},
				"metallicFactor":0,
				"roughnessFactor":0.5
			}
		},
		{
			"alphaMode":"BLEND",
			"doubleSided":true,
			"extensions":{
				"KHR_materials_specular":{
					"specularTexture":{
						"index":10
					}
				}
			},
			"name":"Material.001",
			"normalTexture":{
				"index":11
			},
			"pbrMetallicRoughness":{
				"baseColorTexture":{
					"index":12
				},
				"metallicRoughnessTexture":{
					"index":13
				}
			}
		},
		{
			"extensions":{
				"KHR_materials_transmission":{
					"transmissionFactor":0.013636363670229912
				}
			},
			"name":"tripo_material_b156bee7-f509-4e49-93fe-9e0d6d3398e5",
			"normalTexture":{
				"index":14
			},
			"pbrMetallicRoughness":{
				"baseColorTexture":{
					"index":15
				},
				"metallicRoughnessTexture":{
					"index":16
				}
			}
		}
	],
	"meshes":[
		{
			"name":"Cube.015",
			"primitives":[
				{
					"attributes":{
						"POSITION":0,
						"NORMAL":1,
						"TEXCOORD_0":2
					},
					"indices":3,
					"material":0
				},
				{
					"attributes":{
						"POSITION":4,
						"NORMAL":5,
						"TEXCOORD_0":6
					},
					"indices":7,
					"material":1
				},
				{
					"attributes":{
						"POSITION":8,
						"NORMAL":9,
						"TEXCOORD_0":10
					},
					"indices":11,
					"material":2
				},
				{
					"attributes":{
						"POSITION":12,
						"NORMAL":13,
						"TEXCOORD_0":14
					},
					"indices":15,
					"material":3
				},
				{
					"attributes":{
						"POSITION":16,
						"NORMAL":17,
						"TEXCOORD_0":18
					},
					"indices":19,
					"material":4
				},
				{
					"attributes":{
						"POSITION":20,
						"NORMAL":21,
						"TEXCOORD_0":22
					},
					"indices":23,
					"material":5
				}
			]
		}
	],
	"textures":[
		{
			"sampler":0,
			"source":0
		},
		{
			"sampler":0,
			"source":1
		},
		{
			"sampler":0,
			"source":2
		},
		{
			"sampler":0,
			"source":3
		},
		{
			"sampler":0,
			"source":4
		},
		{
			"sampler":0,
			"source":5
		},
		{
			"sampler":0,
			"source":6
		},
		{
			"sampler":0,
			"source":7
		},
		{
			"sampler":0,
			"source":8
		},
		{
			"sampler":0,
			"source":9
		},
		{
			"sampler":0,
			"source":10
		},
		{
			"sampler":0,
			"source":11
		},
		{
			"sampler":0,
			"source":12
		},
		{
			"sampler":0,
			"source":13
		},
		{
			"sampler":0,
			"source":14
		},
		{
			"sampler":0,
			"source":15
		},
		{
			"sampler":0,
			"source":16
		}
	],
	"images":[
		{
			"mimeType":"image/jpeg",
			"name":"normal",
			"uri":"normal.jpg"
		},
		{
			"mimeType":"image/jpeg",
			"name":"color",
			"uri":"color.jpg"
		},
		{
			"mimeType":"image/jpeg",
			"name":"roughness",
			"uri":"roughness.jpg"
		},
		{
			"mimeType":"image/jpeg",
			"name":"speckled_countertop1_Normal-ogl",
			"uri":"speckled_countertop1_Normal-ogl.jpg"
		},
		{
			"mimeType":"image/jpeg",
			"name":"speckled_countertop1_albedo",
			"uri":"speckled_countertop1_albedo.jpg"
		},
		{
			"mimeType":"image/jpeg",
			"name":"speckled_countertop1_Roughness",
			"uri":"speckled_countertop1_Roughness.jpg"
		},
		{
			"mimeType":"image/jpeg",
			"name":"harshbricks-normal",
			"uri":"harshbricks-normal.jpg"
		},
		{
			"mimeType":"image/jpeg",
			"name":"harshbricks-albedo",
			"uri":"harshbricks-albedo.jpg"
		},
		{
			"mimeType":"image/jpeg",
			"name":"harshbricks-roughness",
			"uri":"harshbricks-roughness.jpg"
		},
		{
			"mimeType":"image/jpeg",
			"name":"EG-0015-Cristal_spec_by_peponhill",
			"uri":"EG-0015-Cristal_spec_by_peponhill.jpg"
		},
		{
			"mimeType":"image/jpeg",
			"name":"TERRAZZO_006_1K_SpecularLevel",
			"uri":"TERRAZZO_006_1K_SpecularLevel.jpg"
		},
		{
			"mimeType":"image/jpeg",
			"name":"TERRAZZO_006_1K_Normal",
			"uri":"TERRAZZO_006_1K_Normal.jpg"
		},
		{
			"mimeType":"image/png",
			"name":"TERRAZZO_006_1K_BaseColor-TERRAZZO_006_1K_Opacity",
			"uri":"TERRAZZO_006_1K_BaseColor-TERRAZZO_006_1K_Opacity.png"
		},
		{
			"mimeType":"image/jpeg",
			"name":"TERRAZZO_006_1K_Metallic-TERRAZZO_006_1K_Roughness",
			"uri":"TERRAZZO_006_1K_Metallic-TERRAZZO_006_1K_Roughness.jpg"
		},
		{
			"mimeType":"image/jpeg",
			"name":"NormalGL_b156bee7-f509-4e49-93fe-9e0d6d3398e5",
			"uri":"NormalGL_b156bee7-f509-4e49-93fe-9e0d6d3398e5.jpg"
		},
		{
			"mimeType":"image/jpeg",
			"name":"Color_b156bee7-f509-4e49-93fe-9e0d6d3398e5",
			"uri":"Color_b156bee7-f509-4e49-93fe-9e0d6d3398e5.jpg"
		},
		{
			"mimeType":"image/jpeg",
			"name":"ORM_b156bee7-f509-4e49-93fe-9e0d6d3398e5",
			"uri":"ORM_b156bee7-f509-4e49-93fe-9e0d6d3398e5.jpg"
		}
	],
	"accessors":[
		{
			"bufferView":0,
			"componentType":5126,
			"count":868,
			"max":[
				19.85137176513672,
				0.6890563368797302,
				20.045913696289062
			],
			"min":[
				-1.4565657377243042,
				-0.8733140826225281,
				-20.53361701965332
			],
			"type":"VEC3"
		},
		{
			"bufferView":1,
			"componentType":5126,
			"count":868,
			"type":"VEC3"
		},
		{
			"bufferView":2,
			"componentType":5126,
			"count":868,
			"type":"VEC2"
		},
		{
			"bufferView":3,
			"componentType":5123,
			"count":1458,
			"type":"SCALAR"
		},
		{
			"bufferView":4,
			"componentType":5126,
			"count":174135,
			"max":[
				37.07875442504883,
				3.664597511291504,
				20.320472717285156
			],
			"min":[
				-1.9604456424713135,
				-1.0960506200790405,
				-20.44105339050293
			],
			"type":"VEC3"
		},
		{
			"bufferView":5,
			"componentType":5126,
			"count":174135,
			"type":"VEC3"
		},
		{
			"bufferView":6,
			"componentType":5126,
			"count":174135,
			"type":"VEC2"
		},
		{
			"bufferView":7,
			"componentType":5125,
			"count":868683,
			"type":"SCALAR"
		},
		{
			"bufferView":8,
			"componentType":5126,
			"count":671384,
			"max":[
				19.85137176513672,
				2.6737499237060547,
				20.045913696289062
			],
			"min":[
				-1.4565657377243042,
				0.5075899958610535,
				-20.53361701965332
			],
			"type":"VEC3"
		},
		{
			"bufferView":9,
			"componentType":5126,
			"count":671384,
			"type":"VEC3"
		},
		{
			"bufferView":10,
			"componentType":5126,
			"count":671384,
			"type":"VEC2"
		},
		{
			"bufferView":11,
			"componentType":5125,
			"count":3162198,
			"type":"SCALAR"
		},
		{
			"bufferView":12,
			"componentType":5126,
			"count":958,
			"max":[
				18.197914123535156,
				-0.5849545001983643,
				20.39129638671875
			],
			"min":[
				0.20479679107666016,
				-0.9370059967041016,
				-21.006505966186523
			],
			"type":"VEC3"
		},
		{
			"bufferView":13,
			"componentType":5126,
			"count":958,
			"type":"VEC3"
		},
		{
			"bufferView":14,
			"componentType":5126,
			"count":958,
			"type":"VEC2"
		},
		{
			"bufferView":15,
			"componentType":5123,
			"count":4422,
			"type":"SCALAR"
		},
		{
			"bufferView":16,
			"componentType":5126,
			"count":367,
			"max":[
				18.197914123535156,
				-0.5849545001983643,
				17.37693214416504
			],
			"min":[
				0.20479679107666016,
				-0.9370059967041016,
				-21.006507873535156
			],
			"type":"VEC3"
		},
		{
			"bufferView":17,
			"componentType":5126,
			"count":367,
			"type":"VEC3"
		},
		{
			"bufferView":18,
			"componentType":5126,
			"count":367,
			"type":"VEC2"
		},
		{
			"bufferView":19,
			"componentType":5123,
			"count":1410,
			"type":"SCALAR"
		},
		{
			"bufferView":20,
			"componentType":5126,
			"count":181010,
			"max":[
				17.295597076416016,
				2.433608055114746,
				20.312744140625
			],
			"min":[
				1.2053861618041992,
				-0.8308697938919067,
				17.87078094482422
			],
			"type":"VEC3"
		},
		{
			"bufferView":21,
			"componentType":5126,
			"count":181010,
			"type":"VEC3"
		},
		{
			"bufferView":22,
			"componentType":5126,
			"count":181010,
			"type":"VEC2"
		},
		{
			"bufferView":23,
			"componentType":5125,
			"count":1009248,
			"type":"SCALAR"
		}
	],
	"bufferViews":[
		{
			"buffer":0,
			"byteLength":10416,
			"byteOffset":0,
			"target":34962
		},
		{
			"buffer":0,
			"byteLength":10416,
			"byteOffset":10416,
			"target":34962
		},
		{
			"buffer":0,
			"byteLength":6944,
			"byteOffset":20832,
			"target":34962
		},
		{
			"buffer":0,
			"byteLength":2916,
			"byteOffset":27776,
			"target":34963
		},
		{
			"buffer":0,
			"byteLength":2089620,
			"byteOffset":30692,
			"target":34962
		},
		{
			"buffer":0,
			"byteLength":2089620,
			"byteOffset":2120312,
			"target":34962
		},
		{
			"buffer":0,
			"byteLength":1393080,
			"byteOffset":4209932,
			"target":34962
		},
		{
			"buffer":0,
			"byteLength":3474732,
			"byteOffset":5603012,
			"target":34963
		},
		{
			"buffer":0,
			"byteLength":8056608,
			"byteOffset":9077744,
			"target":34962
		},
		{
			"buffer":0,
			"byteLength":8056608,
			"byteOffset":17134352,
			"target":34962
		},
		{
			"buffer":0,
			"byteLength":5371072,
			"byteOffset":25190960,
			"target":34962
		},
		{
			"buffer":0,
			"byteLength":12648792,
			"byteOffset":30562032,
			"target":34963
		},
		{
			"buffer":0,
			"byteLength":11496,
			"byteOffset":43210824,
			"target":34962
		},
		{
			"buffer":0,
			"byteLength":11496,
			"byteOffset":43222320,
			"target":34962
		},
		{
			"buffer":0,
			"byteLength":7664,
			"byteOffset":43233816,
			"target":34962
		},
		{
			"buffer":0,
			"byteLength":8844,
			"byteOffset":43241480,
			"target":34963
		},
		{
			"buffer":0,
			"byteLength":4404,
			"byteOffset":43250324,
			"target":34962
		},
		{
			"buffer":0,
			"byteLength":4404,
			"byteOffset":43254728,
			"target":34962
		},
		{
			"buffer":0,
			"byteLength":2936,
			"byteOffset":43259132,
			"target":34962
		},
		{
			"buffer":0,
			"byteLength":2820,
			"byteOffset":43262068,
			"target":34963
		},
		{
			"buffer":0,
			"byteLength":2172120,
			"byteOffset":43264888,
			"target":34962
		},
		{
			"buffer":0,
			"byteLength":2172120,
			"byteOffset":45437008,
			"target":34962
		},
		{
			"buffer":0,
			"byteLength":1448080,
			"byteOffset":47609128,
			"target":34962
		},
		{
			"buffer":0,
			"byteLength":4036992,
			"byteOffset":49057208,
			"target":34963
		}
	],
	"samplers":[
		{
			"magFilter":9729,
			"minFilter":9987
		}
	],
	"buffers":[
		{
			"byteLength":53094200,
			"uri":"capilla.bin"
		}
	]
}
